<svg width="20" height="20" viewBox="0 0 20 20" fill="none" xmlns="http://www.w3.org/2000/svg">
<path d="M18.1251 5.625V14.375C18.1251 14.8723 17.9275 15.3492 17.5759 15.7008C17.2243 16.0525 16.7473 16.25 16.2501 16.25H3.75006C3.25278 16.25 2.77587 16.0525 2.42424 15.7008C2.07261 15.3492 1.87506 14.8723 1.87506 14.375V5.625M18.1251 5.625C18.1251 5.12772 17.9275 4.65081 17.5759 4.29917C17.2243 3.94754 16.7473 3.75 16.2501 3.75H3.75006C3.25278 3.75 2.77587 3.94754 2.42424 4.29917C2.07261 4.65081 1.87506 5.12772 1.87506 5.625M18.1251 5.625V5.8275C18.1251 6.14762 18.0432 6.46242 17.8871 6.74191C17.731 7.0214 17.506 7.25628 17.2334 7.42417L10.9834 11.27C10.6877 11.4521 10.3473 11.5485 10.0001 11.5485C9.65281 11.5485 9.31239 11.4521 9.01673 11.27L2.76673 7.425C2.49416 7.25711 2.26912 7.02224 2.11304 6.74275C1.95695 6.46325 1.87503 6.14845 1.87506 5.82833V5.625" stroke="#1463FF" stroke-width="1.5" stroke-linecap="round" stroke-linejoin="round"/>
</svg>
