<svg width="20" height="20" viewBox="0 0 20 20" fill="none" xmlns="http://www.w3.org/2000/svg">
<path d="M3.55 8.45584C3.32079 10.2105 3.18421 11.976 3.14083 13.745C5.53984 14.7471 7.83682 15.9778 10 17.42C12.1634 15.9777 14.4607 14.747 16.86 13.745C16.8166 11.976 16.68 10.2105 16.4508 8.45584M16.4508 8.45584C17.18 8.21084 17.9192 7.98417 18.6658 7.7775C15.9463 5.87104 13.0433 4.24074 10 2.91084C6.95666 4.24102 4.05367 5.8716 1.33417 7.77833C2.07856 7.98386 2.81717 8.20978 3.54917 8.45584C5.77302 9.20351 7.93075 10.1351 10 11.2408C12.069 10.1351 14.2272 9.2035 16.4508 8.45584ZM5.625 12.5C5.79076 12.5 5.94973 12.4342 6.06694 12.3169C6.18415 12.1997 6.25 12.0408 6.25 11.875C6.25 11.7092 6.18415 11.5503 6.06694 11.4331C5.94973 11.3159 5.79076 11.25 5.625 11.25C5.45924 11.25 5.30027 11.3159 5.18306 11.4331C5.06585 11.5503 5 11.7092 5 11.875C5 12.0408 5.06585 12.1997 5.18306 12.3169C5.30027 12.4342 5.45924 12.5 5.625 12.5ZM5.625 12.5V9.4375C7.03895 8.55862 8.49941 7.75689 10 7.03584M4.16083 16.6608C4.62581 16.197 4.99453 15.6458 5.2458 15.039C5.49708 14.4322 5.62594 13.7818 5.625 13.125V11.875" stroke="#050138" stroke-width="1.3" stroke-linecap="round" stroke-linejoin="round"/>
</svg>
