<svg width="20" height="20" viewBox="0 0 20 20" fill="none" xmlns="http://www.w3.org/2000/svg">
<path d="M12.535 18.06L11.4033 13.8334M11.4033 13.8334L9.31167 15.6875L9.78583 7.79587L14.1417 14.3934L11.4033 13.8334ZM5.13833 13.6109C4.33894 12.8114 3.74905 11.8271 3.42092 10.7451C3.09279 9.66321 3.03655 8.51706 3.25718 7.4082C3.4778 6.29934 3.96849 5.26201 4.68578 4.38809C5.40306 3.51417 6.3248 2.83063 7.36935 2.39802C8.4139 1.96541 9.54902 1.79709 10.6742 1.90795C11.7993 2.01882 12.8797 2.40546 13.8198 3.03362C14.7598 3.66178 15.5304 4.51207 16.0633 5.50918C16.5962 6.50629 16.875 7.61945 16.875 8.75004M6.90667 11.8434C6.39785 11.3346 6.02236 10.7083 5.81346 10.0198C5.60456 9.33124 5.56869 8.60183 5.70904 7.89614C5.84938 7.19045 6.16161 6.53027 6.61806 5.97408C7.07451 5.41788 7.66108 4.98285 8.32583 4.70752C8.99058 4.43218 9.71297 4.32505 10.429 4.3956C11.1451 4.46616 11.8326 4.71223 12.4309 5.112C13.0291 5.51178 13.5195 6.05293 13.8586 6.68752C14.1977 7.3221 14.3751 8.03053 14.375 8.75004" stroke="#050138" stroke-width="1.33333" stroke-linecap="round" stroke-linejoin="round"/>
</svg>
