<svg width="18" height="18" viewBox="0 0 18 18" fill="none" xmlns="http://www.w3.org/2000/svg">
<path d="M10.125 12.6562H12.6562M12.6562 12.6562H15.1875M12.6562 12.6562V10.125M12.6562 12.6562V15.1875M4.5 7.875H6.1875C6.63505 7.875 7.06427 7.69721 7.38074 7.38074C7.69721 7.06427 7.875 6.63505 7.875 6.1875V4.5C7.875 4.05245 7.69721 3.62323 7.38074 3.30676C7.06427 2.99029 6.63505 2.8125 6.1875 2.8125H4.5C4.05245 2.8125 3.62323 2.99029 3.30676 3.30676C2.99029 3.62323 2.8125 4.05245 2.8125 4.5V6.1875C2.8125 6.63505 2.99029 7.06427 3.30676 7.38074C3.62323 7.69721 4.05245 7.875 4.5 7.875ZM4.5 15.1875H6.1875C6.63505 15.1875 7.06427 15.0097 7.38074 14.6932C7.69721 14.3768 7.875 13.9476 7.875 13.5V11.8125C7.875 11.3649 7.69721 10.9357 7.38074 10.6193C7.06427 10.3028 6.63505 10.125 6.1875 10.125H4.5C4.05245 10.125 3.62323 10.3028 3.30676 10.6193C2.99029 10.9357 2.8125 11.3649 2.8125 11.8125V13.5C2.8125 13.9476 2.99029 14.3768 3.30676 14.6932C3.62323 15.0097 4.05245 15.1875 4.5 15.1875ZM11.8125 7.875H13.5C13.9476 7.875 14.3768 7.69721 14.6932 7.38074C15.0097 7.06427 15.1875 6.63505 15.1875 6.1875V4.5C15.1875 4.05245 15.0097 3.62323 14.6932 3.30676C14.3768 2.99029 13.9476 2.8125 13.5 2.8125H11.8125C11.3649 2.8125 10.9357 2.99029 10.6193 3.30676C10.3028 3.62323 10.125 4.05245 10.125 4.5V6.1875C10.125 6.63505 10.3028 7.06427 10.6193 7.38074C10.9357 7.69721 11.3649 7.875 11.8125 7.875Z" stroke="white" stroke-width="1.2" stroke-linecap="round" stroke-linejoin="round"/>
</svg>
