<svg width="40" height="40" viewBox="0 0 40 40" fill="none" xmlns="http://www.w3.org/2000/svg">
<g filter="url(#filter0_i_212_3473)">
<rect width="40" height="40" rx="8" fill="#FFC700"/>
<rect x="1.12677" y="1.12677" width="37.7465" height="37.7465" rx="6.87323" stroke="#191921" stroke-opacity="0.16" stroke-width="2.25353"/>
<path d="M21.875 15.0725C21.875 14.7767 22.03 14.5092 22.2092 14.2733C22.3933 14.0317 22.5 13.745 22.5 13.4375C22.5 12.5742 21.6608 11.875 20.625 11.875C19.5892 11.875 18.75 12.575 18.75 13.4375C18.75 13.745 18.8567 14.0317 19.0408 14.2733C19.22 14.5092 19.375 14.7767 19.375 15.0725C19.3754 15.144 19.3614 15.2148 19.3338 15.2807C19.3063 15.3466 19.2658 15.4064 19.2147 15.4564C19.1636 15.5063 19.1031 15.5455 19.0365 15.5716C18.97 15.5978 18.8989 15.6102 18.8275 15.6083C17.6681 15.5749 16.5106 15.4915 15.3583 15.3583C15.5133 16.7025 15.6025 18.0667 15.6208 19.4475C15.6216 19.5199 15.608 19.5918 15.5808 19.6589C15.5535 19.726 15.5132 19.787 15.4622 19.8384C15.4112 19.8898 15.3505 19.9306 15.2836 19.9583C15.2167 19.9861 15.1449 20.0002 15.0725 20C14.7767 20 14.5092 19.845 14.2733 19.6658C14.0345 19.4793 13.7406 19.377 13.4375 19.375C12.5742 19.375 11.875 20.2142 11.875 21.25C11.875 22.2858 12.575 23.125 13.4375 23.125C13.745 23.125 14.0317 23.0183 14.2733 22.8342C14.5092 22.655 14.7767 22.5 15.0725 22.5C15.3308 22.5 15.535 22.7167 15.5158 22.975C15.4122 24.3879 15.2336 25.7943 14.9808 27.1883C16.2458 27.3467 17.5292 27.4458 18.8275 27.4833C18.8989 27.4852 18.97 27.4728 19.0365 27.4467C19.1031 27.4205 19.1636 27.3813 19.2147 27.3314C19.2658 27.2814 19.3063 27.2216 19.3338 27.1557C19.3614 27.0898 19.3754 27.019 19.375 26.9475C19.375 26.6517 19.22 26.3842 19.0408 26.1483C18.8543 25.9095 18.752 25.6156 18.75 25.3125C18.75 24.45 19.59 23.75 20.625 23.75C21.6608 23.75 22.5 24.45 22.5 25.3125C22.5 25.62 22.3933 25.9067 22.2092 26.1483C22.03 26.3842 21.8758 26.6517 21.8758 26.9475C21.8758 27.225 22.1067 27.4467 22.3842 27.4308C23.9004 27.3417 25.4103 27.1664 26.9067 26.9058C27.1331 25.6044 27.2949 24.2925 27.3917 22.975C27.396 22.9141 27.3878 22.853 27.3674 22.7954C27.347 22.7379 27.315 22.6851 27.2733 22.6405C27.2316 22.5959 27.1811 22.5604 27.1251 22.5363C27.069 22.5121 27.0086 22.4997 26.9475 22.5C26.6517 22.5 26.3842 22.655 26.1483 22.8342C25.9067 23.0183 25.62 23.125 25.3125 23.125C24.45 23.125 23.75 22.2858 23.75 21.25C23.75 20.2142 24.45 19.375 25.3125 19.375C25.6208 19.375 25.9067 19.4817 26.1483 19.6658C26.3842 19.845 26.6517 20 26.9483 20C27.0208 20.0002 27.0925 19.9861 27.1594 19.9583C27.2263 19.9306 27.287 19.8898 27.338 19.8384C27.3891 19.787 27.4294 19.726 27.4566 19.6589C27.4838 19.5918 27.4974 19.5199 27.4967 19.4475C27.4766 17.9541 27.3737 16.4629 27.1883 14.9808C25.6167 15.2658 24.0133 15.4592 22.3833 15.555C22.3177 15.5586 22.2521 15.5488 22.1904 15.5261C22.1288 15.5035 22.0724 15.4684 22.0248 15.4231C21.9771 15.3779 21.9393 15.3233 21.9135 15.2629C21.8878 15.2024 21.8747 15.1382 21.875 15.0725Z" stroke="#050138" stroke-width="1.25" stroke-linecap="round" stroke-linejoin="round"/>
</g>
<defs>
<filter id="filter0_i_212_3473" x="0" y="0" width="40" height="44.5071" filterUnits="userSpaceOnUse" color-interpolation-filters="sRGB">
<feFlood flood-opacity="0" result="BackgroundImageFix"/>
<feBlend mode="normal" in="SourceGraphic" in2="BackgroundImageFix" result="shape"/>
<feColorMatrix in="SourceAlpha" type="matrix" values="0 0 0 0 0 0 0 0 0 0 0 0 0 0 0 0 0 0 127 0" result="hardAlpha"/>
<feOffset dy="4.50706"/>
<feGaussianBlur stdDeviation="2.25353"/>
<feComposite in2="hardAlpha" operator="arithmetic" k2="-1" k3="1"/>
<feColorMatrix type="matrix" values="0 0 0 0 0 0 0 0 0 0 0 0 0 0 0 0 0 0 0.25 0"/>
<feBlend mode="normal" in2="shape" result="effect1_innerShadow_212_3473"/>
</filter>
</defs>
</svg>
